# xmcd CD database file
#
# Track frame offsets:
#	150
#	14193
#	27914
#	39974
#	52640
#	64956
#	78471
#	90945
#	104475
#	116786
#	128322
#	141630
#	155470
#	168782
#	180801
#	193335
#	206701
#	220473
#	235022
#	247528
#	259663
#	270914
#	283637
#	297578
#	310114
#
# Disc length: 4332 seconds
#
# Revision: 0
# Processed by: cddbd v1.5.1PL0 Copyright (c) Steve Scherf et al.
# Submitted via: cdripper 1,0,33,916
#
DISCID=5a10ea19
DTITLE=Various Artist - The Roots Of American Music - Chicago - Inner City Blues
DYEAR=2005
DGENRE=Blues
TTITLE0=Muddy Waters - Rolling Stone 
TTITLE1=Elmore James - Dust My Broom
TTITLE2=Howlin' Wolf - How Many More Years?
TTITLE3=Sonny Boy Williamson - Nine Below Zero
TTITLE4=Little Brother Montgomery - The First Time I Met The Blues
TTITLE5=Blind Lemon Jefferson - Black Snake Blues
TTITLE6=Big Bill Broonzy - I Feel So Good
TTITLE7=Albert Ammons - Albert's Special Boogie Woogie
TTITLE8=Little Walter - Juke
TTITLE9=Willie Dixon - Burying Ground
TTITLE10=Big Maceo - Chicago Breakdown
TTITLE11=Lonnie Johnson - Tomorrow Night
TTITLE12=J.B. Lenoir - The Mojo
TTITLE13=Eddie Boyd - Five Long Years
TTITLE14=Jimmy Reed - High And Lonesome
TTITLE15=Jimmy Witherspoon - Ain't Nobody's Business If I do
TTITLE16=Lavern Baker - Soul On Fire
TTITLE17=Robert Nighthawk - Anna Lee Blues
TTITLE18=Jimmy Rogers - That's All Right
TTITLE19=Sonny Boy Williamson - I Cross My Heart
TTITLE20=Johnny Shines - Evening Sun
TTITLE21=Howlin' Wolf - I've Got A Woman
TTITLE22=Little Walter - Blues With A Feeling
TTITLE23=Roosevelt Sykes - The Night Time Is The Right Time
TTITLE24=Muddy Waters - Baby Please Don't Go
EXTD=YEAR: 2005
EXTT0=
EXTT1=
EXTT2=
EXTT3=
EXTT4=
EXTT5=
EXTT6=
EXTT7=
EXTT8=
EXTT9=
EXTT10=
EXTT11=
EXTT12=
EXTT13=
EXTT14=
EXTT15=
EXTT16=
EXTT17=
EXTT18=
EXTT19=
EXTT20=
EXTT21=
EXTT22=
EXTT23=
EXTT24=
PLAYORDER=
